<svg width="14" height="15" viewBox="0 0 14 15" fill="none" xmlns="http://www.w3.org/2000/svg">
<g clip-path="url(#clip0_15_476)">
<path d="M9.18585 11.0387V9.90016H9.75511C10.1087 9.89996 10.4573 9.81743 10.7735 9.65911C11.0896 9.50078 11.3645 9.27101 11.5765 8.988C11.7884 8.70499 11.9315 8.37651 11.9945 8.02859C12.0574 7.68067 12.0385 7.32287 11.9392 6.98353C11.8399 6.6442 11.6629 6.33265 11.4223 6.07358C11.1817 5.8145 10.8841 5.61502 10.553 5.49093C10.2219 5.36684 9.86648 5.32156 9.51486 5.35867C9.16324 5.39578 8.8251 5.51426 8.52722 5.70473C8.38605 5.10337 8.08444 4.55156 7.65451 4.10803C7.22459 3.66451 6.68243 3.34587 6.08576 3.18605C5.48909 3.02624 4.86025 3.03122 4.26619 3.20047C3.67213 3.36972 3.13508 3.69691 2.71224 4.14719C2.28939 4.59747 1.99657 5.154 1.86495 5.75751C1.73333 6.36103 1.76783 6.98894 1.96479 7.5744C2.16176 8.15986 2.5138 8.68094 2.98344 9.08218C3.45309 9.48341 4.02275 9.74978 4.63178 9.85291V11.004C3.48251 10.8589 2.4317 10.2813 1.6932 9.38888C0.954691 8.49642 0.583986 7.3561 0.65652 6.19999C0.729053 5.04387 1.23938 3.95883 2.08363 3.16567C2.92789 2.37251 4.04265 1.93084 5.20104 1.93054C6.01035 1.93019 6.80513 2.14557 7.50353 2.55451C8.20193 2.96344 8.77871 3.55115 9.17446 4.2571C9.64061 4.17684 10.1183 4.19428 10.5774 4.30831C11.0364 4.42234 11.4668 4.63047 11.8412 4.91952C12.2156 5.20857 12.5259 5.57223 12.7524 5.98747C12.9789 6.40271 13.1167 6.86047 13.1571 7.33175C13.1974 7.80303 13.1395 8.27755 12.9868 8.72525C12.8342 9.17296 12.5903 9.58407 12.2704 9.93256C11.9506 10.2811 11.5619 10.5593 11.1289 10.7497C10.6959 10.9401 10.2281 11.0385 9.75511 11.0387H9.18585ZM5.90236 11.4554L6.90881 10.4489L7.91526 11.4554C8.11426 11.6544 8.24976 11.908 8.30464 12.1841C8.35952 12.4601 8.33132 12.7462 8.22359 13.0063C8.11587 13.2663 7.93346 13.4885 7.69943 13.6449C7.4654 13.8012 7.19027 13.8847 6.90881 13.8847C6.62736 13.8847 6.35222 13.8012 6.1182 13.6449C5.88417 13.4885 5.70176 13.2663 5.59403 13.0063C5.48631 12.7462 5.4581 12.4601 5.51299 12.1841C5.56787 11.908 5.70337 11.6544 5.90236 11.4554Z" fill="#838BAA"/>
</g>
<defs>
<clipPath id="clip0_15_476">
<rect width="13.6622" height="13.6622" fill="white" transform="translate(0.0777283 0.791992)"/>
</clipPath>
</defs>
</svg>
