<svg width="14" height="13" viewBox="0 0 14 13" fill="none" xmlns="http://www.w3.org/2000/svg">
<path d="M6.90882 9.84732C6.00295 9.84732 5.1342 9.48746 4.49366 8.84692C3.85312 8.20638 3.49326 7.33763 3.49326 6.43176C3.49326 5.5259 3.85312 4.65715 4.49366 4.01661C5.1342 3.37607 6.00295 3.01621 6.90882 3.01621C7.81468 3.01621 8.68344 3.37607 9.32398 4.01661C9.96452 4.65715 10.3244 5.5259 10.3244 6.43176C10.3244 7.33763 9.96452 8.20638 9.32398 8.84692C8.68344 9.48746 7.81468 9.84732 6.90882 9.84732ZM6.33956 0.169922H7.47807V1.8777H6.33956V0.169922ZM6.33956 10.9858H7.47807V12.6936H6.33956V10.9858ZM2.07866 2.40654L2.88359 1.60161L4.09099 2.809L3.28605 3.61394L2.07866 2.40711V2.40654ZM9.72665 10.0545L10.5316 9.24959L11.739 10.457L10.934 11.2619L9.72665 10.0545ZM10.934 1.60104L11.739 2.40654L10.5316 3.61394L9.72665 2.809L10.934 1.60161V1.60104ZM3.28605 9.24959L4.09099 10.0545L2.88359 11.2619L2.07866 10.457L3.28605 9.24959ZM13.1707 5.86251V7.00102H11.4629V5.86251H13.1707ZM2.35475 5.86251V7.00102H0.646973V5.86251H2.35475Z" fill="#444E72"/>
</svg>
