<svg width="73" height="51" viewBox="0 0 73 51" fill="none" xmlns="http://www.w3.org/2000/svg">
<g opacity="0.67" filter="url(#filter0_f_15_255)">
<path d="M40.5265 11.1844C42.9462 13.3681 48.6245 15.6837 46.4408 18.1034C44.257 20.5231 31.7752 27.4352 26.5782 24.7635C24.1585 22.5797 28.746 15.5483 30.9298 13.1286C33.1135 10.7089 38.1068 9.00064 40.5265 11.1844Z" fill="url(#paint0_linear_15_255)" fill-opacity="0.3"/>
</g>
<g filter="url(#filter1_ii_15_255)">
<path fill-rule="evenodd" clip-rule="evenodd" d="M36.782 20.6149V20.6152H32.0308C29.666 20.6152 27.7489 18.6981 27.7489 16.3333C27.7489 13.9684 29.666 12.0514 32.0308 12.0514H32.2655C33.0955 12.0514 33.8732 12.2753 34.5415 12.6659C35.4103 10.0919 37.8446 8.23853 40.7118 8.23853H41.0345C44.4521 8.23853 47.2227 11.0091 47.2227 14.4267C47.2227 17.8444 44.4521 20.6149 41.0345 20.6149H36.782Z" fill="white"/>
</g>
<path d="M40.2672 16.9264L44.0331 13.058L43.1573 16.0013L44.8213 16.5059L40.8803 20.4583L41.8436 17.515L40.2672 16.9264Z" fill="url(#paint1_radial_15_255)"/>
<path d="M35.144 21.4804L38.9098 17.6121L38.034 20.5554L39.698 21.06L35.757 25.0124L36.7204 22.0691L35.144 21.4804Z" fill="url(#paint2_radial_15_255)"/>
<path d="M30.0206 18.0649L33.7864 14.1965L32.9107 17.1399L34.5747 17.6444L30.6336 21.5969L31.597 18.6536L30.0206 18.0649Z" fill="url(#paint3_radial_15_255)"/>
<path d="M41.965 21.983L42.1363 22.7781C42.2309 23.2173 41.9609 23.6848 41.5333 23.8225C41.1057 23.9602 40.6824 23.7157 40.5878 23.2766C40.4932 22.8375 40.7631 22.3699 41.1908 22.2322L41.965 21.983Z" fill="url(#paint4_radial_15_255)"/>
<path d="M33.4261 21.983L33.5973 22.7781C33.6919 23.2173 33.422 23.6848 32.9944 23.8225C32.5668 23.9602 32.1434 23.7157 32.0488 23.2766C31.9543 22.8375 32.2242 22.3699 32.6518 22.2322L33.4261 21.983Z" fill="url(#paint5_radial_15_255)"/>
<path d="M28.8721 21.983L29.0433 22.7781C29.1379 23.2173 28.868 23.6848 28.4404 23.8225C28.0128 23.9602 27.5894 23.7157 27.4948 23.2766C27.4003 22.8375 27.6702 22.3699 28.0978 22.2322L28.8721 21.983Z" fill="url(#paint6_radial_15_255)"/>
<path d="M31.1491 24.8293L31.3204 25.6244C31.4149 26.0636 31.145 26.5312 30.7174 26.6688C30.2898 26.8065 29.8664 26.5621 29.7719 26.1229C29.6773 25.6838 29.9472 25.2162 30.3748 25.0785L31.1491 24.8293Z" fill="url(#paint7_radial_15_255)"/>
<path d="M35.1339 24.8293L35.3052 25.6244C35.3998 26.0636 35.1298 26.5312 34.7022 26.6688C34.2746 26.8065 33.8513 26.5621 33.7567 26.1229C33.6621 25.6838 33.932 25.2162 34.3597 25.0785L35.1339 24.8293Z" fill="url(#paint8_radial_15_255)"/>
<path d="M39.1187 24.8293L39.29 25.6244C39.3846 26.0636 39.1146 26.5312 38.687 26.6688C38.2594 26.8065 37.8361 26.5621 37.7415 26.1229C37.6469 25.6838 37.9169 25.2162 38.3445 25.0785L39.1187 24.8293Z" fill="url(#paint9_radial_15_255)"/>
<defs>
<filter id="filter0_f_15_255" x="0.275293" y="-15.4373" width="72.2723" height="66.4216" filterUnits="userSpaceOnUse" color-interpolation-filters="sRGB">
<feFlood flood-opacity="0" result="BackgroundImageFix"/>
<feBlend mode="normal" in="SourceGraphic" in2="BackgroundImageFix" result="shape"/>
<feGaussianBlur stdDeviation="12.8083" result="effect1_foregroundBlur_15_255"/>
</filter>
<filter id="filter1_ii_15_255" x="17.5023" y="-0.30035" width="34.2744" height="27.1773" filterUnits="userSpaceOnUse" color-interpolation-filters="sRGB">
<feFlood flood-opacity="0" result="BackgroundImageFix"/>
<feBlend mode="normal" in="SourceGraphic" in2="BackgroundImageFix" result="shape"/>
<feColorMatrix in="SourceAlpha" type="matrix" values="0 0 0 0 0 0 0 0 0 0 0 0 0 0 0 0 0 0 127 0" result="hardAlpha"/>
<feOffset dx="4.55407" dy="-8.53888"/>
<feGaussianBlur stdDeviation="8.53888"/>
<feComposite in2="hardAlpha" operator="arithmetic" k2="-1" k3="1"/>
<feColorMatrix type="matrix" values="0 0 0 0 0 0 0 0 0 0 0 0 0 0 0 0 0 0 0.2 0"/>
<feBlend mode="normal" in2="shape" result="effect1_innerShadow_15_255"/>
<feColorMatrix in="SourceAlpha" type="matrix" values="0 0 0 0 0 0 0 0 0 0 0 0 0 0 0 0 0 0 127 0" result="hardAlpha"/>
<feOffset dx="-10.2467" dy="6.26184"/>
<feGaussianBlur stdDeviation="8.53888"/>
<feComposite in2="hardAlpha" operator="arithmetic" k2="-1" k3="1"/>
<feColorMatrix type="matrix" values="0 0 0 0 1 0 0 0 0 1 0 0 0 0 1 0 0 0 1 0"/>
<feBlend mode="normal" in2="effect1_innerShadow_15_255" result="effect2_innerShadow_15_255"/>
</filter>
<linearGradient id="paint0_linear_15_255" x1="29.1479" y1="25.8334" x2="43.2029" y2="10.06" gradientUnits="userSpaceOnUse">
<stop stop-color="#254659"/>
<stop offset="1" stop-color="#023553"/>
</linearGradient>
<radialGradient id="paint1_radial_15_255" cx="0" cy="0" r="1" gradientUnits="userSpaceOnUse" gradientTransform="translate(43.4502 14.7412) rotate(119.107) scale(6.54347 5.59)">
<stop stop-color="#FFF72C"/>
<stop offset="1" stop-color="#DF7800"/>
</radialGradient>
<radialGradient id="paint2_radial_15_255" cx="0" cy="0" r="1" gradientUnits="userSpaceOnUse" gradientTransform="translate(38.327 19.2953) rotate(119.107) scale(6.54347 5.59)">
<stop stop-color="#FFF72C"/>
<stop offset="1" stop-color="#DF7800"/>
</radialGradient>
<radialGradient id="paint3_radial_15_255" cx="0" cy="0" r="1" gradientUnits="userSpaceOnUse" gradientTransform="translate(33.2036 15.8798) rotate(119.107) scale(6.54347 5.59)">
<stop stop-color="#FFF72C"/>
<stop offset="1" stop-color="#DF7800"/>
</radialGradient>
<radialGradient id="paint4_radial_15_255" cx="0" cy="0" r="1" gradientUnits="userSpaceOnUse" gradientTransform="translate(40.5345 23.5342) rotate(-34.1445) scale(2.1243 1.56505)">
<stop stop-color="#008CB9"/>
<stop offset="1" stop-color="#5CC4E5"/>
</radialGradient>
<radialGradient id="paint5_radial_15_255" cx="0" cy="0" r="1" gradientUnits="userSpaceOnUse" gradientTransform="translate(31.9956 23.5342) rotate(-34.1445) scale(2.1243 1.56505)">
<stop stop-color="#008CB9"/>
<stop offset="1" stop-color="#5CC4E5"/>
</radialGradient>
<radialGradient id="paint6_radial_15_255" cx="0" cy="0" r="1" gradientUnits="userSpaceOnUse" gradientTransform="translate(27.4416 23.5342) rotate(-34.1445) scale(2.1243 1.56505)">
<stop stop-color="#008CB9"/>
<stop offset="1" stop-color="#5CC4E5"/>
</radialGradient>
<radialGradient id="paint7_radial_15_255" cx="0" cy="0" r="1" gradientUnits="userSpaceOnUse" gradientTransform="translate(29.7186 26.3806) rotate(-34.1445) scale(2.1243 1.56505)">
<stop stop-color="#008CB9"/>
<stop offset="1" stop-color="#5CC4E5"/>
</radialGradient>
<radialGradient id="paint8_radial_15_255" cx="0" cy="0" r="1" gradientUnits="userSpaceOnUse" gradientTransform="translate(33.7034 26.3806) rotate(-34.1445) scale(2.1243 1.56505)">
<stop stop-color="#008CB9"/>
<stop offset="1" stop-color="#5CC4E5"/>
</radialGradient>
<radialGradient id="paint9_radial_15_255" cx="0" cy="0" r="1" gradientUnits="userSpaceOnUse" gradientTransform="translate(37.6882 26.3806) rotate(-34.1445) scale(2.1243 1.56505)">
<stop stop-color="#008CB9"/>
<stop offset="1" stop-color="#5CC4E5"/>
</radialGradient>
</defs>
</svg>
