<svg width="14" height="15" viewBox="0 0 14 15" fill="none" xmlns="http://www.w3.org/2000/svg">
<g clip-path="url(#clip0_15_473)">
<path d="M6.05494 10.2514H2.35476V9.11287H6.05494C6.41856 9.113 6.7752 9.21263 7.08624 9.40097C7.39727 9.58931 7.65083 9.85917 7.81945 10.1813C7.98807 10.5035 8.06532 10.8656 8.04282 11.2285C8.02032 11.5915 7.89894 11.9413 7.69182 12.2402C7.48471 12.539 7.19976 12.7755 6.86784 12.924C6.53593 13.0725 6.16971 13.1273 5.80886 13.0825C5.44802 13.0377 5.10631 12.8951 4.82076 12.6699C4.5352 12.4448 4.3167 12.1459 4.18892 11.8055L5.25514 11.4053C5.30989 11.5512 5.40352 11.6793 5.52589 11.7758C5.64826 11.8723 5.79471 11.9334 5.94935 11.9527C6.104 11.9719 6.26096 11.9484 6.40321 11.8848C6.54547 11.8211 6.6676 11.7198 6.75637 11.5917C6.84515 11.4636 6.89718 11.3137 6.90684 11.1582C6.91649 11.0026 6.8834 10.8474 6.81114 10.7093C6.73888 10.5713 6.63022 10.4556 6.49692 10.3749C6.36363 10.2942 6.21078 10.2515 6.05494 10.2514ZM2.92402 6.83583H10.609C10.9726 6.83596 11.3293 6.9356 11.6403 7.12394C11.9513 7.31228 12.2049 7.58214 12.3735 7.90429C12.5421 8.22644 12.6194 8.5886 12.5969 8.95151C12.5744 9.31443 12.453 9.66427 12.2459 9.96313C12.0388 10.262 11.7538 10.4985 11.4219 10.647C11.09 10.7954 10.7238 10.8503 10.3629 10.8055C10.0021 10.7607 9.66038 10.618 9.37482 10.3929C9.08927 10.1678 8.87077 9.86885 8.74298 9.52843L9.8092 9.12824C9.86395 9.27414 9.95759 9.40228 10.08 9.49876C10.2023 9.59525 10.3488 9.65641 10.5034 9.67562C10.6581 9.69482 10.815 9.67134 10.9573 9.60772C11.0995 9.54409 11.2217 9.44275 11.3104 9.31468C11.3992 9.1866 11.4513 9.03667 11.4609 8.88114C11.4706 8.7256 11.4375 8.57039 11.3652 8.43232C11.293 8.29424 11.1843 8.17858 11.051 8.09785C10.9177 8.01713 10.7648 7.97442 10.609 7.97435H2.92402C2.47109 7.97435 2.03671 7.79443 1.71644 7.47416C1.39617 7.15389 1.21625 6.71951 1.21625 6.26658C1.21625 5.81365 1.39617 5.37927 1.71644 5.059C2.03671 4.73873 2.47109 4.5588 2.92402 4.5588H7.76272C7.91856 4.55874 8.0714 4.51603 8.2047 4.4353C8.33799 4.35457 8.44666 4.23891 8.51891 4.10084C8.59117 3.96277 8.62427 3.80755 8.61461 3.65202C8.60496 3.49648 8.55293 3.34655 8.46415 3.21848C8.37537 3.0904 8.25324 2.98906 8.11099 2.92544C7.96873 2.86181 7.81178 2.83833 7.65713 2.85754C7.50248 2.87674 7.35604 2.9379 7.23367 3.03439C7.1113 3.13088 7.01766 3.25901 6.96291 3.40491L5.89669 3.0053C6.06091 2.56856 6.37315 2.20329 6.77901 1.97312C7.18487 1.74295 7.65862 1.66248 8.11772 1.74572C8.57682 1.82897 8.99216 2.07065 9.29137 2.42867C9.59059 2.78668 9.7547 3.23833 9.75512 3.70491C9.75512 4.23333 9.54521 4.74011 9.17156 5.11376C8.79791 5.4874 8.29114 5.69732 7.76272 5.69732H2.92402C2.77305 5.69732 2.62825 5.75729 2.5215 5.86405C2.41474 5.97081 2.35476 6.1156 2.35476 6.26658C2.35476 6.41755 2.41474 6.56235 2.5215 6.6691C2.62825 6.77586 2.77305 6.83583 2.92402 6.83583Z" fill="#838BAA"/>
</g>
<defs>
<clipPath id="clip0_15_473">
<rect width="13.6622" height="13.6622" fill="white" transform="translate(0.0777283 0.573853)"/>
</clipPath>
</defs>
</svg>
